<?xml version="1.0" encoding="utf-8"?>
<!-- Generator: Adobe Illustrator 27.0.0, SVG Export Plug-In . SVG Version: 6.00 Build 0)  -->
<svg version="1.1" id="Layer_1" xmlns="http://www.w3.org/2000/svg" xmlns:xlink="http://www.w3.org/1999/xlink" x="0px" y="0px"
	 viewBox="0 0 24 24" style="enable-background:new 0 0 24 24;" xml:space="preserve">
<style type="text/css">
	.st0{fill:#3A3D3F;}
</style>
<g>
	<path class="st0" d="M9.3,20.2c-0.1,0-0.2,0-0.4,0s-0.2,0-0.3,0c-0.2,0-0.4-0.1-0.8-0.2c-0.4-0.1-0.7-0.2-1.1-0.4
		c-0.4-0.2-0.7-0.4-1-0.6c-0.3-0.2-0.4-0.4-0.4-0.7c0-0.1,0.1-0.2,0.2-0.2c0.3,0,0.6,0.1,0.9,0.2c0.3,0.2,0.6,0.3,1,0.3
		c0.1,0,0.3,0,0.5,0c0.2,0,0.4,0,0.6,0c0.4,0,0.9,0,1.4-0.1c0.5-0.1,0.9-0.2,1.2-0.4c0.3-0.2,0.5-0.5,0.5-0.9c0-0.2-0.2-0.6-0.5-0.9
		c-0.3-0.4-0.7-0.8-1.2-1.3c-0.5-0.5-1-1-1.4-1.6c-0.5-0.6-0.9-1.3-1.2-2c-0.3-0.7-0.5-1.4-0.5-2.2c0-0.9,0.2-1.8,0.7-2.5
		c0.5-0.7,1-1.3,1.8-1.7c0.7-0.4,1.5-0.8,2.4-1c0.9-0.2,1.7-0.3,2.6-0.3c0.4,0,0.8,0,1.2,0.1c0.5,0.1,1,0.2,1.5,0.4
		c0.5,0.2,1,0.5,1.4,0.8c0.4,0.4,0.6,0.9,0.6,1.5c0,0.6-0.2,1.3-0.6,1.9C17.8,9,17.3,9.5,16.7,10c-0.6,0.4-1.2,0.8-1.7,1
		c-0.1,0.1-0.2,0.1-0.3,0.1c-0.1,0-0.1-0.1-0.1-0.1c0.1-0.2,0.3-0.5,0.6-0.8c0.3-0.3,0.7-0.7,1.1-1.1c0.4-0.4,0.8-0.9,1.1-1.3
		c0.3-0.5,0.5-1,0.5-1.4c0-0.3-0.1-0.6-0.3-0.7c-0.2-0.2-0.5-0.3-0.8-0.4C16.4,5,16.1,5,15.9,4.9c-0.1,0-0.2,0-0.3,0
		c-0.1,0-0.2,0-0.3,0c-0.8,0-1.6,0.1-2.5,0.4c-0.9,0.3-1.8,0.7-2.6,1.1c-0.8,0.5-1.5,1.1-2,1.7c-0.5,0.7-0.8,1.4-0.8,2.2
		c0,0.5,0.2,1,0.5,1.6c0.3,0.5,0.8,1.1,1.3,1.7c0.5,0.6,1,1.1,1.6,1.7c0.5,0.6,1,1.1,1.3,1.6c0.3,0.5,0.5,1,0.5,1.5
		c0,0.4-0.2,0.8-0.6,1c-0.4,0.2-0.8,0.4-1.4,0.5C10.2,20.1,9.7,20.2,9.3,20.2z"/>
</g>
</svg>
